<svg xmlns="http://www.w3.org/2000/svg" width="60" height="60" viewBox="0 0 60 60"><defs><style>.a{fill:none;}.b{fill:#301e1b;}</style></defs><g transform="translate(-172 -186)"><rect class="a" width="60" height="60" transform="translate(172 186)"/><path class="b" d="M14.989,15.87,7.053,7.934-.883,15.87a.623.623,0,0,1-.882,0,.624.624,0,0,1,0-.881L6.171,7.053-1.765-.883a.625.625,0,0,1,0-.882.623.623,0,0,1,.882,0L7.053,6.171l7.936-7.936a.623.623,0,0,1,.882,0,.623.623,0,0,1,0,.882L7.935,7.053l7.936,7.936a.623.623,0,1,1-.882.881Z" transform="translate(211.947 208.948)"/></g></svg>