<svg xmlns="http://www.w3.org/2000/svg" width="24" height="20" viewBox="0 0 24 20"><defs><style>.a{fill:#fff;}</style></defs><path class="a" d="M-902.642-1835.859a4.38,4.38,0,0,1-.049-6.3l5.885-5.751a4.577,4.577,0,0,1,2.278-1.207l.017,0a.869.869,0,0,1,1.023.666.851.851,0,0,1-.682,1,2.82,2.82,0,0,0-1.407.747l-5.885,5.751a2.709,2.709,0,0,0,0,3.894,2.865,2.865,0,0,0,3.986,0l5.884-5.75a2.717,2.717,0,0,0,.721-2.692.847.847,0,0,1,.6-1.048.873.873,0,0,1,1.073.587,4.39,4.39,0,0,1-1.165,4.354l-5.885,5.752a4.6,4.6,0,0,1-3.2,1.279A4.6,4.6,0,0,1-902.642-1835.859Zm12.505-4.821a.85.85,0,0,1,.648-1,2.682,2.682,0,0,0,1.357-.746l5.664-5.75a2.783,2.783,0,0,0,0-3.894,2.682,2.682,0,0,0-3.834,0l-5.664,5.75a2.789,2.789,0,0,0-.693,2.692.851.851,0,0,1-.578,1.047.834.834,0,0,1-1.032-.586,4.506,4.506,0,0,1,1.121-4.355l5.664-5.75a4.327,4.327,0,0,1,3.1-1.3,4.354,4.354,0,0,1,3.1,1.3,4.5,4.5,0,0,1,0,6.3l-5.664,5.749a4.353,4.353,0,0,1-2.192,1.208.833.833,0,0,1-.174.018A.84.84,0,0,1-890.137-1840.68Z" transform="translate(904.001 1854.579)"/></svg>