<svg xmlns="http://www.w3.org/2000/svg" width="32" height="28" viewBox="0 0 32 28"><defs><style>.a{fill:#fff;}</style></defs><path class="a" d="M-1016.522-1837.579a.3.3,0,0,1-.248-.107.721.721,0,0,1-.029-.617c.173-.654,1.027-3.7,1.349-4.841l.039-.138a14.588,14.588,0,0,1-5.5-4.3,9.848,9.848,0,0,1-2.087-5.952,10.718,10.718,0,0,1,4.686-8.519,18.855,18.855,0,0,1,11.314-3.528,18.853,18.853,0,0,1,11.313,3.528,10.718,10.718,0,0,1,4.686,8.519,10.718,10.718,0,0,1-4.686,8.519,18.853,18.853,0,0,1-11.313,3.529,21.261,21.261,0,0,1-2.97-.208c-1.715,1.111-5.879,3.807-6.157,3.983A.767.767,0,0,1-1016.522-1837.579Zm4.731-13.476h3.191l.4,1.078a.773.773,0,0,0,.73.493.815.815,0,0,0,.256-.042.754.754,0,0,0,.444-.382.7.7,0,0,0,.03-.557l-2.332-6.075-.008-.007a1.152,1.152,0,0,0-1.092-.64,1.106,1.106,0,0,0-1.134.765.985.985,0,0,0-.045.1l-2.293,5.857a.7.7,0,0,0,.03.557.753.753,0,0,0,.443.382.8.8,0,0,0,.257.042.775.775,0,0,0,.731-.493l.4-1.078Zm13.021-1.59h0l2.292,2.866a.792.792,0,0,0,.618.294.782.782,0,0,0,.463-.148.723.723,0,0,0,.3-.486.707.707,0,0,0-.147-.544l-2.424-3.033,2.191-2.088a.7.7,0,0,0,.222-.51.7.7,0,0,0-.222-.513.774.774,0,0,0-.537-.212.777.777,0,0,0-.538.212l-2.712,2.583v-2.142a.845.845,0,0,0-.863-.823.845.845,0,0,0-.863.823v6.058a.845.845,0,0,0,.863.823.845.845,0,0,0,.863-.823v-1.869l.492-.469Zm-19.348-4.435a.778.778,0,0,0-.8.758.779.779,0,0,0,.8.758h1.521v5.338a.729.729,0,0,0,.229.524.8.8,0,0,0,.547.216h.171a.8.8,0,0,0,.546-.216.726.726,0,0,0,.228-.524v-5.338h1.437a.779.779,0,0,0,.8-.758.779.779,0,0,0-.8-.758Zm12.885-.107a.845.845,0,0,0-.863.823v5.877a.784.784,0,0,0,.014.132.627.627,0,0,0-.014.131.707.707,0,0,0,.722.688h3.18a.707.707,0,0,0,.722-.688.706.706,0,0,0-.722-.687h-2.176v-5.453A.845.845,0,0,0-1005.234-1857.187Zm-3.872,4.755h-2.178l1.072-2.914h.035l1.07,2.91Z" transform="translate(1023.001 1865.579)"/></svg>